<svg width="597" height="597" viewBox="0 0 597 597" fill="none" xmlns="http://www.w3.org/2000/svg">
<path opacity="0.7" d="M81.1084 199.505C81.1084 199.505 47.8197 285.473 94.6006 372.038C141.382 458.603 237.737 504.334 314.858 543.437C391.978 582.541 472.06 563.496 510.113 499.45C548.165 435.404 495.976 389.686 495.904 298.357C495.832 207.028 509.575 182.849 460.084 105.693C410.593 28.5365 289.27 11.4504 197.523 68.6788C105.776 125.907 81.1084 199.505 81.1084 199.505Z" fill="white"/>
<path d="M76.0459 166.157C107.938 104.26 167.16 57.4314 240.889 50.8405C291.599 46.419 342.138 61.0405 382.653 91.8544C402.784 107.376 420.67 127.137 432.55 149.692C446.186 175.602 450.162 205.475 464.191 231.266C481.636 263.325 514.399 276.554 536.405 304.255C554.517 327.072 560.738 357.651 558.661 386.713C554.864 439.762 523.784 490.125 478.066 517.312C439.416 540.297 392.826 546.637 347.92 544.548C278.668 541.336 209.726 518.495 155.184 475.714C100.642 432.932 61.4432 369.686 52.1539 300.995C45.8377 254.322 55.0195 206.956 76.0459 166.157Z" fill="#1C7A86"/>
<path opacity="0.7" d="M76.0459 166.157C107.938 104.26 167.16 57.4314 240.889 50.8405C291.599 46.419 342.138 61.0405 382.653 91.8544C402.784 107.376 420.67 127.137 432.55 149.692C446.186 175.602 450.162 205.475 464.191 231.266C481.636 263.325 514.399 276.554 536.405 304.255C554.517 327.072 560.738 357.651 558.661 386.713C554.864 439.762 523.784 490.125 478.066 517.312C439.416 540.297 392.826 546.637 347.92 544.548C278.668 541.336 209.726 518.495 155.184 475.714C100.642 432.932 61.4432 369.686 52.1539 300.995C45.8377 254.322 55.0195 206.956 76.0459 166.157Z" fill="white"/>
<path d="M55.0076 188.783C56.4165 194.371 55.724 184.091 58.4821 171.53C61.2402 158.969 65.9804 164.055 65.9804 164.055" stroke="#263238" stroke-linecap="round" stroke-linejoin="round"/>
<path d="M54.1479 175.948L62.8044 172.402" stroke="#263238" stroke-linecap="round" stroke-linejoin="round"/>
<path d="M69.9565 168.139C69.9565 168.139 64.7864 178.885 72.5833 183.398" stroke="#263238" stroke-linecap="round" stroke-linejoin="round"/>
<path d="M77.2996 165.13C77.2996 165.13 85.8486 169.906 80.4995 180.151" stroke="#263238" stroke-linecap="round" stroke-linejoin="round"/>
<path d="M71.4489 171.769L77.5742 176.234" stroke="#263238" stroke-linecap="round" stroke-linejoin="round"/>
<path d="M76.2488 169.799L71.4609 177.428" stroke="#263238" stroke-linecap="round" stroke-linejoin="round"/>
<path d="M103.755 284.153C104.92 277.053 100.11 270.354 93.0101 269.189C85.9108 268.024 79.211 272.834 78.0459 279.934C76.8808 287.033 81.6915 293.733 88.7909 294.898C95.8903 296.063 102.59 291.252 103.755 284.153Z" stroke="#263238" stroke-linecap="round" stroke-linejoin="round"/>
<path d="M111.482 301.291C119.299 299.688 124.335 292.052 122.732 284.236C121.129 276.419 113.493 271.382 105.677 272.985C97.8606 274.589 92.8237 282.225 94.4267 290.041C96.0298 297.857 103.666 302.894 111.482 301.291Z" stroke="#263238" stroke-linecap="round" stroke-linejoin="round"/>
<path d="M102.768 276.662L96.7737 278.799" stroke="#263238" stroke-linecap="round" stroke-linejoin="round"/>
<path d="M103.603 279.133L94.9827 282.25" stroke="#263238" stroke-linecap="round" stroke-linejoin="round"/>
<path d="M103.926 282.118L94.3021 285.82" stroke="#263238" stroke-linecap="round" stroke-linejoin="round"/>
<path d="M103.245 286.19L94.4693 290.202" stroke="#263238" stroke-linecap="round" stroke-linejoin="round"/>
<path d="M101.693 289.318L95.0305 292.088" stroke="#263238" stroke-linecap="round" stroke-linejoin="round"/>
<path d="M97.1916 262.19C96.8214 260.996 92.5947 260.256 92.4156 263.384C92.2365 266.513 96.8692 263.91 98.1826 262.19C98.1826 262.19 95.7946 265.402 96.7976 266.035" stroke="#263238" stroke-linecap="round" stroke-linejoin="round"/>
<path d="M120.594 266.083L116.845 273.88C116.845 273.88 118.719 269.975 120.725 270.298C123.197 270.739 121.549 274.787 118.564 273.295" stroke="#263238" stroke-linecap="round" stroke-linejoin="round"/>
<path d="M528.596 393.387L534.482 398.951" stroke="#263238" stroke-linecap="round" stroke-linejoin="round"/>
<path d="M534.482 391.93L529.551 399.297" stroke="#263238" stroke-linecap="round" stroke-linejoin="round"/>
<path d="M540.273 394.044L546.171 391.847" stroke="#263238" stroke-linecap="round" stroke-linejoin="round"/>
<path d="M549.001 385.71L552.583 388.874" stroke="#263238" stroke-linecap="round" stroke-linejoin="round"/>
<path d="M555.329 381.901L550.792 397.471" stroke="#263238" stroke-linecap="round" stroke-linejoin="round"/>
<path d="M280.554 305.927L296.399 295.025L317.377 296.494L318.691 323.096L303.288 334.105L284.279 332.72L280.554 305.927Z" stroke="#263238" stroke-linecap="round" stroke-linejoin="round"/>
<path d="M284.279 332.72L299.622 321.676L318.691 323.096" stroke="#263238" stroke-linecap="round" stroke-linejoin="round"/>
<path d="M299.622 321.675L296.399 295.025" stroke="#263238" stroke-linecap="round" stroke-linejoin="round"/>
<path d="M280.554 305.927L301.485 308.35L317.377 296.494" stroke="#263238" stroke-linecap="round" stroke-linejoin="round"/>
<path d="M301.485 308.35L303.288 334.105" stroke="#263238" stroke-linecap="round" stroke-linejoin="round"/>
<path d="M465.481 216.556L458.46 238.37L480.31 235.421L465.481 216.556Z" stroke="#263238" stroke-linecap="round" stroke-linejoin="round"/>
<path d="M465.481 216.556L469.385 236.77" stroke="#263238" stroke-linecap="round" stroke-linejoin="round"/>
<path d="M468.764 233.534L471.32 233.128L471.917 236.555" stroke="#263238" stroke-linecap="round" stroke-linejoin="round"/>
<path d="M190.312 416.181L201.225 421.542" stroke="#263238" stroke-linecap="round" stroke-linejoin="round"/>
<path d="M197.702 412.085L194.574 423.488" stroke="#263238" stroke-linecap="round" stroke-linejoin="round"/>
<path d="M199.219 406.521C199.398 406.336 199.618 406.195 199.861 406.11C200.104 406.025 200.364 405.998 200.62 406.032C200.875 406.066 201.119 406.159 201.332 406.304C201.545 406.449 201.721 406.642 201.846 406.867C202.944 408.587 200.795 412.193 200.795 412.193L205.177 410.521" stroke="#263238" stroke-linecap="round" stroke-linejoin="round"/>
<path d="M275.993 40.5959C286.417 46.4585 274.477 60.7865 274.477 69.1445C274.477 77.5025 286.417 76.3085 292.387 78.6965C294.775 78.6965 299.551 78.6965 299.419 84.762" stroke="#263238" stroke-linecap="round" stroke-linejoin="round"/>
<path d="M264.375 48.2018C266.19 58.0762 277.509 54.5777 284.459 56.8344C296.399 60.7149 289.772 73.037 286.214 80.4875C284.076 84.9292 281.951 91.1619 285.772 95.3767" stroke="#263238" stroke-linecap="round" stroke-linejoin="round"/>
<path d="M265.904 52.0345L278.333 41.7064" stroke="#263238" stroke-linecap="round" stroke-linejoin="round"/>
<path d="M270.775 55.115L280.136 47.354" stroke="#263238" stroke-linecap="round" stroke-linejoin="round"/>
<path d="M276.28 62.9715L284.184 56.7627" stroke="#263238" stroke-linecap="round" stroke-linejoin="round"/>
<path d="M274.644 72.2608L290.094 61.1566" stroke="#263238" stroke-linecap="round" stroke-linejoin="round"/>
<path d="M280.566 76.5951L291.336 68.6908" stroke="#263238" stroke-linecap="round" stroke-linejoin="round"/>
<path d="M285.151 93.3946L298.607 82.4337" stroke="#263238" stroke-linecap="round" stroke-linejoin="round"/>
<path d="M285.485 84.7739L294.261 78.601" stroke="#263238" stroke-linecap="round" stroke-linejoin="round"/>
<path d="M109.79 422.129C122.611 417.001 128.847 402.45 123.719 389.629C118.591 376.808 104.04 370.572 91.2194 375.7C78.3985 380.828 72.1622 395.378 77.2902 408.199C82.4182 421.02 96.9687 427.257 109.79 422.129Z" stroke="#263238" stroke-linecap="round" stroke-linejoin="round"/>
<path d="M106.791 374.725C115.508 364.492 122.922 358.701 125.776 360.588C130.122 363.442 122.325 382.928 108.367 404.097C94.4096 425.267 79.5682 440.12 75.222 437.255C72.3564 435.38 74.7683 426.282 80.7383 414.234" stroke="#263238" stroke-linecap="round" stroke-linejoin="round"/>
<path d="M76.0339 404.05C63.879 400.551 56.118 396.468 56.6075 393.208C57.312 388.05 78.3144 386.856 103.4 390.617C128.486 394.378 148.211 401.506 147.459 406.641C146.922 410.223 136.713 411.858 122.206 411.309" stroke="#263238" stroke-linecap="round" stroke-linejoin="round"/>
<path d="M79.2219 385.937C70.052 369.388 65.467 356.481 68.5714 354.463C72.6549 351.824 88.4396 368.946 103.83 392.671C119.221 416.395 128.379 437.84 124.307 440.49C121.609 442.234 113.788 435.332 104.344 423.583" stroke="#263238" stroke-linecap="round" stroke-linejoin="round"/>
<path d="M129.298 371.406C128.853 372.084 128.217 372.616 127.47 372.933C126.722 373.251 125.898 373.339 125.1 373.189C124.303 373.038 123.568 372.654 122.988 372.086C122.409 371.517 122.01 370.79 121.844 369.996C121.677 369.201 121.75 368.375 122.052 367.622C122.355 366.869 122.874 366.222 123.544 365.763C124.214 365.305 125.004 365.055 125.816 365.046C126.628 365.036 127.424 365.267 128.104 365.71C128.557 366.005 128.948 366.387 129.253 366.833C129.559 367.279 129.773 367.781 129.884 368.31C129.995 368.839 130 369.385 129.9 369.916C129.799 370.447 129.595 370.954 129.298 371.406Z" fill="#263238"/>
<path d="M115.699 434.317C115.253 434.996 114.617 435.528 113.87 435.845C113.123 436.162 112.298 436.251 111.501 436.1C110.703 435.95 109.968 435.566 109.389 434.997C108.809 434.429 108.411 433.702 108.244 432.907C108.078 432.113 108.15 431.287 108.453 430.534C108.755 429.78 109.274 429.134 109.944 428.675C110.614 428.217 111.405 427.967 112.216 427.958C113.028 427.948 113.824 428.179 114.505 428.622C114.958 428.917 115.348 429.298 115.654 429.745C115.959 430.191 116.173 430.693 116.284 431.222C116.395 431.751 116.4 432.297 116.3 432.828C116.199 433.359 115.995 433.865 115.699 434.317Z" fill="#263238"/>
<path d="M93.7529 391.632C93.3077 392.311 92.6713 392.842 91.9242 393.16C91.177 393.477 90.3526 393.566 89.5551 393.415C88.7575 393.264 88.0225 392.88 87.4429 392.312C86.8633 391.744 86.4651 391.016 86.2985 390.222C86.132 389.427 86.2045 388.601 86.5071 387.848C86.8096 387.095 87.3286 386.448 87.9984 385.99C88.6683 385.531 89.4589 385.281 90.2706 385.272C91.0823 385.263 91.8785 385.494 92.5589 385.937C93.4715 386.534 94.1098 387.47 94.3336 388.537C94.5575 389.605 94.3486 390.718 93.7529 391.632Z" fill="#263238"/>
<path d="M355.609 212.914H369.674L376.707 200.735L369.674 188.556H355.609L348.576 200.735L355.609 212.914Z" stroke="#263238" stroke-linecap="round" stroke-linejoin="round"/>
<path d="M353.567 239.648L346.535 227.469H332.469" stroke="#263238" stroke-linecap="round" stroke-linejoin="round"/>
<path d="M334.356 200.735H348.421L355.454 188.556L348.421 176.366H334.356L327.323 188.556L334.356 200.735Z" stroke="#263238" stroke-linecap="round" stroke-linejoin="round"/>
<path d="M355.609 188.556H369.674L376.707 176.366L369.674 164.187H355.609L348.576 176.366L355.609 188.556Z" stroke="#263238" stroke-linecap="round" stroke-linejoin="round"/>
<path d="M355.454 190.443C356.496 190.443 357.34 189.598 357.34 188.556C357.34 187.515 356.496 186.67 355.454 186.67C354.412 186.67 353.567 187.515 353.567 188.556C353.567 189.598 354.412 190.443 355.454 190.443Z" fill="#263238"/>
<path d="M326.081 164.868C327.123 164.868 327.968 164.023 327.968 162.981C327.968 161.939 327.123 161.094 326.081 161.094C325.039 161.094 324.195 161.939 324.195 162.981C324.195 164.023 325.039 164.868 326.081 164.868Z" fill="#263238"/>
<path d="M351.681 239.648C351.681 239.275 351.791 238.91 351.999 238.6C352.206 238.289 352.501 238.048 352.845 237.905C353.19 237.762 353.569 237.725 353.935 237.797C354.301 237.87 354.637 238.05 354.901 238.314C355.165 238.577 355.345 238.914 355.418 239.28C355.49 239.646 355.453 240.025 355.31 240.37C355.167 240.714 354.926 241.009 354.615 241.216C354.305 241.424 353.94 241.534 353.567 241.534C353.32 241.534 353.074 241.485 352.845 241.391C352.616 241.296 352.408 241.157 352.233 240.982C352.058 240.806 351.919 240.598 351.824 240.37C351.73 240.141 351.681 239.895 351.681 239.648Z" fill="#263238"/>
<path d="M332.469 229.355C333.511 229.355 334.356 228.511 334.356 227.469C334.356 226.427 333.511 225.582 332.469 225.582C331.427 225.582 330.583 226.427 330.583 227.469C330.583 228.511 331.427 229.355 332.469 229.355Z" fill="#263238"/>
<path d="M390.319 176.712C390.319 176.336 390.43 175.968 390.639 175.656C390.848 175.343 391.146 175.1 391.493 174.957C391.841 174.814 392.223 174.777 392.592 174.851C392.96 174.925 393.299 175.107 393.564 175.374C393.829 175.64 394.009 175.98 394.08 176.349C394.152 176.718 394.113 177.1 393.968 177.447C393.822 177.793 393.577 178.089 393.263 178.296C392.949 178.503 392.581 178.613 392.205 178.61C391.956 178.61 391.71 178.561 391.48 178.466C391.251 178.37 391.042 178.23 390.867 178.054C390.692 177.877 390.553 177.668 390.459 177.437C390.365 177.207 390.317 176.961 390.319 176.712Z" fill="#263238"/>
<path d="M346.391 229.355C347.433 229.355 348.278 228.511 348.278 227.469C348.278 226.427 347.433 225.582 346.391 225.582C345.349 225.582 344.505 226.427 344.505 227.469C344.505 228.511 345.349 229.355 346.391 229.355Z" fill="#263238"/>
<path d="M374.82 176.712C374.82 176.336 374.932 175.969 375.14 175.657C375.349 175.345 375.646 175.102 375.992 174.958C376.339 174.814 376.721 174.777 377.089 174.85C377.458 174.923 377.796 175.104 378.061 175.37C378.327 175.635 378.508 175.973 378.581 176.342C378.654 176.71 378.617 177.092 378.473 177.438C378.329 177.785 378.086 178.082 377.774 178.29C377.461 178.499 377.094 178.61 376.719 178.61C376.215 178.61 375.733 178.41 375.377 178.054C375.021 177.698 374.82 177.215 374.82 176.712Z" fill="#263238"/>
<path d="M353.567 212.926C353.565 212.55 353.675 212.181 353.882 211.867C354.09 211.553 354.386 211.308 354.734 211.162C355.081 211.017 355.464 210.979 355.833 211.052C356.203 211.124 356.542 211.305 356.808 211.572C357.074 211.838 357.255 212.177 357.328 212.547C357.401 212.916 357.363 213.299 357.217 213.646C357.072 213.993 356.827 214.29 356.513 214.498C356.199 214.705 355.83 214.815 355.454 214.813C354.954 214.809 354.476 214.61 354.123 214.257C353.77 213.903 353.57 213.425 353.567 212.926Z" fill="#263238"/>
<path d="M376.719 176.688H392.205" stroke="#263238" stroke-linecap="round" stroke-linejoin="round"/>
<path d="M355.454 212.926L346.391 227.469" stroke="#263238" stroke-linecap="round" stroke-linejoin="round"/>
<path d="M334.356 176.366L326.081 162.981" stroke="#263238" stroke-linecap="round" stroke-linejoin="round"/>
<path d="M434.115 128.355C435.737 122.872 439.118 118.074 443.737 114.703C448.356 111.331 453.956 109.573 459.673 109.699C465.39 109.826 470.906 111.829 475.372 115.401C479.837 118.974 483.003 123.916 484.382 129.465" stroke="#263238" stroke-linecap="round" stroke-linejoin="round"/>
<path d="M456.108 161.596C449.755 160.869 443.892 157.83 439.636 153.058C435.38 148.287 433.028 142.116 433.028 135.722" stroke="#263238" stroke-linecap="round" stroke-linejoin="round"/>
<path d="M485.134 135.722C485.134 142.626 482.392 149.248 477.511 154.132C472.63 159.015 466.009 161.76 459.105 161.763" stroke="#263238" stroke-linecap="round" stroke-linejoin="round"/>
<path d="M486.615 119.209C494.758 118.17 500.214 118.731 501.062 121.167C502.746 126.015 485.325 136.462 462.15 144.51C438.974 152.557 418.831 155.136 417.136 150.277C416.24 147.686 420.801 143.495 428.777 138.922" stroke="#263238" stroke-linecap="round" stroke-linejoin="round"/>
<path d="M346.391 101.371L348.887 106.421L354.463 107.233L350.427 111.173L351.382 116.725L346.391 114.099L341.4 116.725L342.356 111.173L338.32 107.233L343.896 106.421L346.391 101.371Z" stroke="#263238" stroke-linecap="round" stroke-linejoin="round"/>
<path d="M170.109 87.9141C170.106 92.4046 168.322 96.7105 165.147 99.8868C161.973 103.063 157.669 104.851 153.178 104.857C152.629 104.857 152.092 104.833 151.566 104.785C148.298 104.475 145.191 103.223 142.622 101.18C140.052 99.1367 138.132 96.3913 137.093 93.2773C136.055 90.1632 135.944 86.8146 136.773 83.6384C137.602 80.4623 139.336 77.5954 141.764 75.3863C144.192 73.1771 147.21 71.7209 150.45 71.1946C153.69 70.6682 157.013 71.0945 160.016 72.4215C163.018 73.7485 165.57 75.9191 167.362 78.6695C169.154 81.4198 170.108 84.6315 170.109 87.9141Z" stroke="#263238" stroke-linecap="round" stroke-linejoin="round"/>
<path d="M167.399 90.9708C167.401 91.4909 167.249 91.9999 166.962 92.4334C166.675 92.867 166.265 93.2055 165.786 93.4062C165.306 93.6068 164.777 93.6605 164.267 93.5605C163.757 93.4605 163.287 93.2113 162.919 92.8444C162.55 92.4775 162.299 92.0095 162.197 91.4996C162.094 90.9898 162.146 90.461 162.344 89.9803C162.542 89.4996 162.879 89.0887 163.311 88.7995C163.744 88.5103 164.252 88.356 164.772 88.356C165.467 88.3559 166.133 88.6311 166.625 89.1211C167.117 89.6111 167.396 90.2762 167.399 90.9708Z" stroke="#263238" stroke-linecap="round" stroke-linejoin="round"/>
<path d="M143.817 97.6334C143.818 98.2557 143.682 98.8706 143.418 99.434C143.153 99.9975 142.768 100.496 142.289 100.893C140.062 99.055 138.348 96.6739 137.31 93.9797C137.967 93.5763 138.724 93.3653 139.495 93.3708C140.06 93.3629 140.621 93.4673 141.145 93.678C141.669 93.8886 142.146 94.2013 142.548 94.598C142.95 94.9946 143.269 95.4671 143.487 95.9882C143.705 96.5093 143.817 97.0685 143.817 97.6334Z" stroke="#263238" stroke-linecap="round" stroke-linejoin="round"/>
<path d="M164.772 100.296C161.641 103.261 157.491 104.911 153.178 104.905C152.629 104.905 152.092 104.881 151.566 104.833C151.47 104.374 151.422 103.906 151.423 103.436C151.424 101.849 151.961 100.308 152.946 99.0643C153.932 97.8202 155.309 96.9456 156.855 96.5821C158.4 96.2186 160.022 96.3876 161.459 97.0617C162.896 97.7358 164.064 98.8754 164.772 100.296Z" stroke="#263238" stroke-linecap="round" stroke-linejoin="round"/>
<path d="M149.071 81.192C151.221 81.192 152.963 79.4493 152.963 77.2995C152.963 75.1498 151.221 73.4071 149.071 73.4071C146.921 73.4071 145.178 75.1498 145.178 77.2995C145.178 79.4493 146.921 81.192 149.071 81.192Z" stroke="#263238" stroke-linecap="round" stroke-linejoin="round"/>
<path d="M152.677 88.3559C152.677 88.7125 152.571 89.0611 152.373 89.3576C152.175 89.6541 151.893 89.8852 151.564 90.0216C151.234 90.1581 150.872 90.1938 150.522 90.1242C150.172 90.0547 149.851 89.8829 149.599 89.6308C149.347 89.3786 149.175 89.0574 149.106 88.7077C149.036 88.3579 149.072 87.9954 149.208 87.666C149.345 87.3365 149.576 87.0549 149.872 86.8568C150.169 86.6587 150.517 86.553 150.874 86.553C151.111 86.553 151.345 86.5996 151.564 86.6902C151.783 86.7808 151.981 86.9136 152.149 87.081C152.316 87.2485 152.449 87.4472 152.54 87.666C152.63 87.8847 152.677 88.1192 152.677 88.3559Z" stroke="#263238" stroke-linecap="round" stroke-linejoin="round"/>
<path d="M166.921 78.0278C166.447 78.1832 165.951 78.2598 165.453 78.2547C164.801 78.2547 164.156 78.1261 163.554 77.8763C162.952 77.6266 162.405 77.2605 161.945 76.7991C161.484 76.3377 161.12 75.7901 160.871 75.1875C160.623 74.585 160.496 73.9393 160.497 73.2876C160.485 73.0808 160.485 72.8735 160.497 72.6667C163.055 73.886 165.264 75.7298 166.921 78.0278Z" stroke="#263238" stroke-linecap="round" stroke-linejoin="round"/>
<path d="M556.225 284.518L558.052 280.411L555.091 278.787C555.2 278.064 555.22 277.33 555.15 276.602L558.183 275.121L556.571 270.931L553.323 271.862C552.888 271.277 552.383 270.748 551.819 270.286L552.929 267.086L548.822 265.259L547.186 268.22C546.461 268.131 545.727 268.131 545.001 268.22L543.533 265.187L539.33 266.799L540.273 270.035C539.687 270.478 539.154 270.987 538.685 271.551L535.497 270.441L533.718 274.489L536.679 276.124C536.57 276.848 536.55 277.581 536.619 278.309L533.575 279.778L535.187 283.981L538.434 283.038C538.873 283.623 539.377 284.156 539.939 284.626L538.84 287.814L542.948 289.64L544.571 286.679C545.295 286.788 546.028 286.808 546.756 286.739L548.237 289.784L552.428 288.172L551.497 284.924C552.079 284.486 552.608 283.981 553.073 283.42L556.225 284.518ZM543.736 282.226C542.793 281.806 541.996 281.117 541.445 280.245C540.893 279.372 540.613 278.356 540.64 277.325C540.666 276.293 540.998 275.293 541.593 274.45C542.188 273.607 543.019 272.959 543.982 272.588C544.945 272.218 545.997 272.141 547.003 272.368C548.01 272.595 548.926 273.115 549.637 273.863C550.348 274.611 550.822 275.552 550.997 276.569C551.173 277.586 551.044 278.632 550.625 279.575C550.061 280.838 549.019 281.827 547.728 282.323C546.437 282.82 545.001 282.785 543.736 282.226Z" stroke="#263238" stroke-linecap="round" stroke-linejoin="round"/>
<path d="M534.399 305.592L536.882 300.016L532.87 297.796C533.013 296.815 533.037 295.821 532.942 294.834L537.073 292.829L534.912 287.133L530.506 288.411C529.917 287.612 529.232 286.89 528.464 286.262L529.969 281.915L524.345 279.396L522.136 283.408C521.156 283.267 520.162 283.239 519.175 283.324L517.169 279.205L511.462 281.402L512.739 285.796C511.946 286.396 511.225 287.085 510.59 287.85L506.256 286.393L503.772 291.969L507.784 294.19C507.641 295.17 507.617 296.164 507.713 297.151L503.581 299.157L505.778 304.852L510.184 303.586C510.776 304.382 511.462 305.104 512.226 305.736L510.722 310.07L516.309 312.553L518.518 308.53C519.498 308.676 520.493 308.704 521.479 308.613L523.485 312.732L529.193 310.547L527.915 306.142C528.708 305.546 529.429 304.861 530.064 304.1L534.399 305.592ZM517.444 302.476C516.162 301.905 515.079 300.966 514.33 299.779C513.582 298.592 513.203 297.21 513.241 295.807C513.279 294.405 513.731 293.045 514.542 291.899C515.353 290.754 516.485 289.875 517.796 289.374C519.106 288.872 520.536 288.771 521.904 289.082C523.273 289.394 524.518 290.104 525.482 291.123C526.447 292.142 527.087 293.425 527.322 294.808C527.558 296.191 527.378 297.613 526.805 298.894C526.426 299.744 525.883 300.512 525.208 301.152C524.532 301.793 523.737 302.294 522.867 302.626C521.998 302.959 521.071 303.117 520.14 303.091C519.21 303.065 518.293 302.856 517.444 302.476Z" stroke="#263238" stroke-linecap="round" stroke-linejoin="round"/>
<path d="M286.882 252.662C285.246 255.762 283.399 258.746 281.354 261.594C270.746 276.343 255.158 286.754 237.471 290.904C219.783 295.055 201.191 292.663 185.13 284.172C183.47 283.3 181.846 282.369 180.294 281.39C178.742 280.411 177.225 279.408 175.769 278.333C174.002 277.056 172.306 275.695 170.682 274.274C170.578 274.196 170.482 274.108 170.396 274.011C159.815 264.647 152.081 252.496 148.079 238.946C144.076 225.395 143.965 210.992 147.76 197.382C151.554 183.772 159.1 171.503 169.536 161.978C179.972 152.453 192.877 146.056 206.777 143.517C220.676 140.978 235.009 142.4 248.138 147.62C261.268 152.841 272.664 161.649 281.025 173.039C289.386 184.429 294.375 197.941 295.421 212.031C296.468 226.122 293.529 240.222 286.942 252.722L286.882 252.662Z" fill="#1C7A86"/>
<mask id="mask0_3_8" style="mask-type:luminance" maskUnits="userSpaceOnUse" x="144" y="142" width="152" height="151">
<path d="M286.882 252.662C285.246 255.762 283.399 258.746 281.354 261.594C270.746 276.343 255.158 286.754 237.471 290.904C219.783 295.055 201.191 292.663 185.13 284.172C183.47 283.3 181.846 282.369 180.294 281.39C178.742 280.411 177.225 279.408 175.769 278.333C174.002 277.056 172.306 275.695 170.682 274.274C170.578 274.196 170.482 274.108 170.396 274.011C159.815 264.647 152.081 252.496 148.079 238.946C144.076 225.395 143.965 210.992 147.76 197.382C151.554 183.772 159.1 171.503 169.536 161.978C179.972 152.453 192.877 146.056 206.777 143.517C220.676 140.978 235.009 142.4 248.138 147.62C261.268 152.841 272.664 161.649 281.025 173.039C289.386 184.429 294.375 197.941 295.421 212.031C296.468 226.122 293.529 240.222 286.942 252.722L286.882 252.662Z" fill="white"/>
</mask>
<g mask="url(#mask0_3_8)">
<g opacity="0.6">
<path d="M286.882 252.662C285.246 255.762 283.399 258.746 281.354 261.594L279.897 260.4L277.39 259.074L274.751 257.689L275.193 254.501L275.05 251.624C274.895 248.746 276.972 251.098 278.632 250.227C279.926 249.302 280.972 248.071 281.677 246.645C281.677 246.645 282.871 242.812 282.477 241.272C281.834 239.497 281.076 237.766 280.208 236.09L275.933 242.06L272.351 241.785L268.96 239.994L268.519 235.278L266.775 234.37L266.047 231.66L256.626 229.021L255.552 227.135C254.477 225.248 250.143 224.281 250.143 224.281L251.206 221.821L252.877 219.075C254.561 216.329 256.304 220.89 256.304 220.89L258.298 221.929L261.999 218.824L262.979 214.371L269.008 214.717C268.89 214.114 268.982 213.489 269.269 212.946C269.556 212.403 270.02 211.974 270.584 211.732C272.59 210.944 271.707 206.586 270.942 204.974C270.178 203.362 267.36 204.664 267.36 204.664C267.36 204.664 264.292 199.995 263.874 198.132C263.456 196.27 269.725 196.938 272.411 195.064C275.098 193.189 274.178 189.464 272.865 189.38C271.551 189.297 275.432 180.903 282.894 183.207C284.972 183.852 286.285 183.625 287.097 182.909C292.696 193.689 295.601 205.665 295.564 217.812C295.526 229.959 292.548 241.917 286.882 252.662Z" fill="white"/>
<path d="M234.669 220.365L232.114 223.577C232.114 223.577 231.027 220.986 229.475 222.383L227.087 224.508L225.356 229.355L222.251 231.361L220.353 230.37L218.562 229.415L216.615 228.388L214.753 231.97L213.236 234.836C213.975 236.243 214.895 237.547 215.971 238.716L219.266 244.531L223.278 246.561C224.951 246.623 226.617 246.823 228.257 247.158L231.015 248.603L230.036 254.573C230.036 254.573 227.958 257.952 226.573 257.02L225.176 256.101L222.908 263.958L222.812 268.28C222.812 268.28 221.463 268.841 220.102 269.295C218.741 269.748 219.6 269.51 216.747 270.393C213.893 271.277 214.12 271.241 211.804 271.898C209.829 272.589 207.929 273.477 206.132 274.548L206.335 278.704L200.879 279.503L197.822 277.88L198.574 275.253L198.932 271.145L198.514 268.077L197.201 265.367L200.879 262.035L200.067 259.946L197.977 255.791L193.559 258.179L191.291 259.373L186.157 257.068L185.595 253.952L183.876 248.352L182.276 244.866L179.434 241.021L178.718 237.713L180.318 234.681L181.166 233.081L178.551 229.558L177.834 227.051L173.429 223.051C173.429 223.051 174.706 222.968 174.42 221.189C174.133 219.409 176.939 216.413 176.939 216.413C178.527 217.248 183.291 220.568 183.291 220.568L187.458 221.141C187.458 221.141 188.294 221.141 189.106 219.565C190.054 218.115 191.168 216.781 192.425 215.589C192.425 215.589 190.503 208.914 191.876 208.019C193.249 207.123 194.646 202.753 194.646 202.753L195.744 200.664C195.744 200.664 193.153 199.529 192.664 198.156C192.174 196.783 185.786 198.61 185.786 198.61L181.381 201.667L177.906 204.353L176.402 207.207C176.402 207.207 173.333 203.517 173.321 205.583C173.087 207.701 172.622 209.787 171.936 211.804C171.936 211.804 172.569 212.138 171.733 213.738C170.897 215.338 169.99 215.254 168.151 215.481C165.754 215.505 163.359 215.342 160.987 214.992C160.987 214.992 159.793 219.409 160.617 220.174L161.429 220.914C161.429 220.914 160.151 224.126 158.886 223.457L155.805 221.833L151.495 223.577L146.719 228.854L145.656 228.639C142.729 209.006 147.671 189.011 159.407 173.002C171.143 156.993 188.725 146.264 208.329 143.149C208.604 144.343 208.902 145.465 208.902 145.465L207.708 151.363L206.18 154.277L204.867 156.772L203.016 160.283L207.756 164.653L206.741 169.823L204.174 171.435L203.434 175.315L207.84 183.924L209.034 187.303C208.296 188.92 207.933 190.684 207.971 192.461C207.971 192.461 208.508 195.685 210.86 196.962C213.213 198.24 216.305 199.744 216.305 199.744L216.054 204.52L214.992 205.714L216.759 210.86C222.144 212.974 221.63 214.741 222.144 212.974L222.669 211.219L226.335 209.893L231.003 215.469C231.546 215.462 232.083 215.592 232.563 215.846C233.043 216.101 233.451 216.472 233.749 216.926C235.111 218.645 237.236 217.153 234.669 220.365Z" fill="white"/>
<path d="M171.387 261.952C171.518 263.647 169.369 265.772 169.369 265.772L171.124 266.692L171.661 271.468L170.336 273.999C160.945 265.703 153.782 255.186 149.501 243.409L150.456 238.346L154.671 237.749C154.671 237.749 158.444 235.242 160.115 235.91C161.787 236.579 163.315 240.686 163.315 240.686C163.315 240.686 164.509 246.227 164.354 246.119H164.282H164.378L166.097 247.027L166.587 249.212L164.199 253.749H160.354C160.354 253.749 159.59 253.343 159.518 255.337C159.581 256.029 159.791 256.699 160.135 257.303C160.479 257.906 160.949 258.429 161.512 258.835L165.668 257.773L166.778 253.474L170.861 252.674C170.861 252.674 170.276 255.313 171.232 255.814L172.199 256.328L172.772 259.48C172.344 259.734 171.991 260.096 171.748 260.53C171.505 260.964 171.38 261.454 171.387 261.952Z" fill="white"/>
<path d="M191.136 268.71C190.765 267.683 190.61 266.787 188.067 265.45C185.524 264.113 185.679 264.59 184.676 265.701C184.244 266.272 183.654 266.704 182.98 266.944C182.305 267.184 181.575 267.221 180.879 267.05C179.207 266.68 180.079 268.566 180.079 268.566L180.485 273.665L175.769 278.321C177.225 279.396 178.734 280.415 180.294 281.378L181.297 278.298L189.13 280.59C187.47 280.1 188.449 277.832 188.449 277.832L186.777 276.948C186.777 276.948 191.506 269.713 191.136 268.71Z" fill="white"/>
<path d="M240.472 242.203L237.904 239.612L234.967 240.531L233.773 242.919L232.878 244.639L234.072 247.027L236.46 249.928L237.821 247.325C237.821 247.325 241.606 247.325 243.588 245.14C245.57 242.955 240.472 242.203 240.472 242.203Z" fill="white"/>
<path d="M232.926 230.514L237.702 233.021L237.893 231.899C238.141 230.999 238.581 230.165 239.182 229.451L235.528 225.582L232.926 230.514Z" fill="white"/>
<path d="M231.302 286.094L229.929 284.077L228.329 283.241H223.445L220.663 288.518C220.663 288.518 218.001 288.16 214.502 287.85C211.004 287.539 211.863 288.984 211.863 288.984L210.956 292.303C219.783 293.39 228.732 292.909 237.391 290.882C236.385 290.181 235.34 289.535 234.263 288.948L231.302 286.094Z" fill="white"/>
</g>
</g>
<path d="M286.882 252.662C285.246 255.762 283.399 258.746 281.354 261.594C270.746 276.343 255.158 286.754 237.471 290.904C219.783 295.055 201.191 292.663 185.13 284.172C183.47 283.3 181.846 282.369 180.294 281.39C178.742 280.411 177.225 279.408 175.769 278.333C174.002 277.056 172.306 275.695 170.682 274.274C170.578 274.196 170.482 274.108 170.396 274.011C159.815 264.647 152.081 252.496 148.079 238.946C144.076 225.395 143.965 210.992 147.76 197.382C151.554 183.772 159.1 171.503 169.536 161.978C179.972 152.453 192.877 146.056 206.777 143.517C220.676 140.978 235.009 142.4 248.138 147.62C261.268 152.841 272.664 161.649 281.025 173.039C289.386 184.429 294.375 197.941 295.421 212.031C296.468 226.122 293.529 240.222 286.942 252.722L286.882 252.662Z" stroke="#263238" stroke-linecap="round" stroke-linejoin="round"/>
<path d="M237.391 290.882C228.732 292.909 219.783 293.39 210.956 292.303L211.863 288.984C211.863 288.984 211.004 287.539 214.502 287.85C218.001 288.16 220.663 288.518 220.663 288.518L223.445 283.241H228.329L229.929 284.077L231.302 286.094L234.263 288.948C235.34 289.535 236.385 290.181 237.391 290.882Z" stroke="#263238" stroke-linecap="round" stroke-linejoin="round"/>
<path d="M287.145 182.921C286.333 183.637 285.02 183.864 282.942 183.219C275.48 180.915 271.611 189.297 272.913 189.392C274.214 189.488 275.133 193.261 272.459 195.076C269.784 196.891 263.504 196.27 263.922 198.144C264.34 200.019 267.408 204.676 267.408 204.676C267.408 204.676 270.154 203.386 270.931 204.986C271.707 206.586 272.59 210.956 270.584 211.744C270.02 211.986 269.556 212.415 269.269 212.958C268.982 213.501 268.89 214.126 269.008 214.729L262.979 214.383L261.999 218.836L258.298 221.941L256.304 220.902C256.304 220.902 254.561 216.341 252.877 219.087L251.206 221.833L250.143 224.293C250.143 224.293 254.477 225.26 255.552 227.147L256.626 229.033L266.047 231.672L266.775 234.382L268.519 235.29L268.96 240.006L272.471 241.845L276.053 242.119L280.327 236.149C281.195 237.826 281.953 239.557 282.596 241.331C283.014 242.872 281.796 246.704 281.796 246.704C281.092 248.131 280.046 249.361 278.751 250.286C277.044 251.158 274.954 248.806 275.169 251.683L275.313 254.561L274.871 257.749L277.509 259.134L280.017 260.459L281.474 261.653" stroke="#263238" stroke-linecap="round" stroke-linejoin="round"/>
<path d="M145.752 228.639L146.814 228.854L151.59 223.577L155.901 221.833L158.981 223.457C160.247 224.126 161.524 220.914 161.524 220.914L160.712 220.174C159.889 219.409 161.083 214.992 161.083 214.992C163.454 215.342 165.849 215.505 168.247 215.481C170.133 215.254 171.029 215.326 171.829 213.738C172.629 212.15 172.032 211.804 172.032 211.804C172.718 209.787 173.182 207.701 173.417 205.583C173.417 203.517 176.497 207.207 176.497 207.207L178.002 204.353L181.369 201.679L185.774 198.622C185.774 198.622 192.162 196.783 192.652 198.168C193.141 199.553 195.732 200.676 195.732 200.676L194.634 202.765C194.634 202.765 193.225 207.111 191.864 208.031C190.503 208.95 192.413 215.601 192.413 215.601C191.156 216.793 190.042 218.127 189.094 219.577C188.258 221.177 187.446 221.153 187.446 221.153L183.279 220.58C183.279 220.58 178.503 217.26 176.927 216.424C176.927 216.424 174.121 219.421 174.408 221.2C174.694 222.98 173.417 223.063 173.417 223.063L177.822 227.063L178.539 229.57L181.154 233.093L180.306 234.693L178.706 237.725L179.422 241.033L182.264 244.877L183.876 248.352L185.619 253.976L186.18 257.092L191.315 259.397L193.583 258.203L198.001 255.815L200.091 259.97L200.902 262.059L197.225 265.39L198.538 268.101L198.956 271.169L198.598 275.277L197.846 277.904L200.902 279.527L206.359 278.739L206.156 274.572C207.953 273.501 209.853 272.613 211.828 271.922C214.144 271.265 213.917 271.301 216.771 270.417C219.624 269.534 218.753 269.772 220.126 269.319C221.499 268.865 222.836 268.304 222.836 268.304L222.932 263.981L225.2 256.125L226.597 257.044C227.982 257.976 230.06 254.597 230.06 254.597L231.039 248.627L228.221 247.158C226.581 246.823 224.915 246.623 223.242 246.561L219.314 244.495L216.018 238.681C214.942 237.511 214.023 236.207 213.284 234.8L214.801 231.935L216.663 228.353L218.609 229.379L220.4 230.335L222.299 231.326L225.403 229.32L227.135 224.472L229.523 222.347C231.075 220.938 232.161 223.541 232.161 223.541L234.717 220.329C237.284 217.117 235.158 218.609 233.845 216.962C233.546 216.508 233.138 216.137 232.658 215.882C232.178 215.627 231.642 215.498 231.099 215.505L226.43 209.929L222.717 211.338L222.191 213.093C221.678 214.86 222.191 213.093 216.807 210.98L215.039 205.834L216.102 204.64L216.353 199.864C216.353 199.864 213.26 198.347 210.908 197.082C208.556 195.816 208.019 192.58 208.019 192.58C207.981 190.803 208.344 189.04 209.081 187.422L207.887 184.043L203.481 175.434L204.222 171.554L206.789 169.942L207.804 164.772L203.195 160.402L205.046 156.892L206.359 154.396L207.887 151.483L209.081 145.584C209.081 145.584 208.783 144.486 208.508 143.268" stroke="#263238" stroke-linecap="round" stroke-linejoin="round"/>
<path d="M170.742 274.262C170.649 274.155 170.545 274.059 170.432 273.975L171.757 271.444L171.22 266.668L169.464 265.749C169.464 265.749 171.614 263.623 171.482 261.928C171.459 261.422 171.572 260.919 171.809 260.472C172.047 260.025 172.4 259.649 172.832 259.385L172.258 256.233L171.291 255.719C170.336 255.218 170.921 252.579 170.921 252.579L166.838 253.379L165.727 257.677L161.572 258.74C161.008 258.334 160.539 257.811 160.195 257.208C159.851 256.604 159.64 255.933 159.578 255.241C159.65 253.248 160.414 253.653 160.414 253.653H164.259L166.647 249.116L166.157 246.931L164.438 246.024" stroke="#263238" stroke-linecap="round" stroke-linejoin="round"/>
<path d="M164.33 246.024C164.521 246.131 163.291 240.591 163.291 240.591C163.291 240.591 161.763 236.543 160.092 235.815C158.42 235.087 154.647 237.654 154.647 237.654L150.432 238.251L149.477 243.313" stroke="#263238" stroke-linecap="round" stroke-linejoin="round"/>
<path d="M181.297 278.298L180.294 281.378C178.702 280.407 177.194 279.388 175.769 278.321L180.485 273.665L180.079 268.566C180.079 268.566 179.207 266.68 180.879 267.05C181.575 267.221 182.305 267.184 182.98 266.944C183.654 266.704 184.244 266.272 184.676 265.701C185.655 264.59 185.536 264.113 188.067 265.45C190.598 266.787 190.765 267.683 191.136 268.71C191.506 269.737 186.777 276.984 186.777 276.984L188.449 277.868C188.449 277.868 187.47 280.136 189.13 280.626L181.297 278.298Z" stroke="#263238" stroke-linecap="round" stroke-linejoin="round"/>
<path d="M234.967 240.531L237.905 239.612L240.472 242.203C240.472 242.203 245.546 242.86 243.564 245.069C241.582 247.277 237.797 247.254 237.797 247.254L236.412 249.856L234.024 246.955L232.83 244.567L233.726 242.848L234.967 240.531Z" stroke="#263238" stroke-linecap="round" stroke-linejoin="round"/>
<path d="M239.182 229.451C238.581 230.165 238.141 231 237.893 231.899L237.702 233.021L232.926 230.514L235.528 225.583L239.182 229.451Z" stroke="#263238" stroke-linecap="round" stroke-linejoin="round"/>
<path d="M498.292 511.092C491.892 516.417 442.592 550.255 372.241 544.798C368.456 512.775 354.021 381.22 370.438 360.588C370.438 360.588 410.27 341.591 446.962 349.567C483.654 357.543 497.934 365.185 500.549 371.8C502.531 376.802 499.701 469.958 498.292 511.092Z" fill="#263238"/>
<path d="M445.744 363.621C424.61 381.925 397.387 378.056 397.984 364.003C398.08 361.806 400.432 359.083 400.432 359.083L399.608 357.818L396.026 352.409C393.411 348.361 390.139 343.275 387.859 339.574C385.949 336.421 433.577 307.121 433.577 323.968C433.577 347.705 445.231 352.17 445.231 352.17C449.625 353.937 453.72 356.731 445.744 363.621Z" fill="white" stroke="#263238" stroke-linecap="round" stroke-linejoin="round"/>
<path d="M459.105 399.871C459.105 399.871 454.842 414.485 456.86 418.676" stroke="white" stroke-linecap="round" stroke-linejoin="round"/>
<path d="M454.126 357.436C454.126 371.537 412.061 385.352 399.739 371.203" stroke="white" stroke-linecap="round" stroke-linejoin="round"/>
<path d="M419.524 341.162C419.524 341.162 416.706 351.788 403.572 360.086C402.945 359.011 401.934 358.213 400.742 357.854C400.347 357.789 399.944 357.789 399.548 357.854L395.966 352.445C402.76 347.549 419.524 341.162 419.524 341.162Z" fill="#263238"/>
<path d="M425.422 328.099C425.422 328.099 425.279 338.583 423.034 340.72C406.378 356.695 390.092 357.961 387.405 353.746C369.316 325.377 373.591 317.926 371.752 313.067C368.492 304.542 364.492 290.62 366.259 282.19C370.2 263.361 405.662 248.758 424.336 267.695C433.291 276.757 436.12 296.422 434.234 312.804" fill="white"/>
<path d="M425.422 328.099C425.422 328.099 425.279 338.583 423.034 340.72C406.378 356.695 390.092 357.961 387.405 353.746C369.316 325.377 373.591 317.926 371.752 313.067C368.492 304.542 364.492 290.62 366.259 282.19C370.2 263.361 405.662 248.758 424.336 267.695C433.291 276.757 436.12 296.422 434.234 312.804" stroke="#263238" stroke-linecap="round" stroke-linejoin="round"/>
<path d="M374.032 304.303C374.032 304.303 369.053 302.07 367.979 304.733" stroke="#263238" stroke-linecap="round" stroke-linejoin="round"/>
<path d="M386.104 304.47C386.104 304.47 396.456 300.136 401.112 305.401" stroke="#263238" stroke-linecap="round" stroke-linejoin="round"/>
<path d="M397.602 311.813C397.769 313.365 397.017 314.715 395.906 314.846C394.796 314.977 393.769 313.795 393.602 312.243C393.435 310.691 394.187 309.33 395.298 309.21C396.408 309.091 397.387 310.261 397.602 311.813Z" fill="#263238"/>
<path d="M377.304 312.279C377.483 313.831 376.719 315.192 375.608 315.312C374.498 315.431 373.471 314.273 373.304 312.721C373.137 311.168 373.889 309.807 375 309.688C376.11 309.568 377.113 310.727 377.304 312.279Z" fill="#263238"/>
<path d="M377.805 308.195C379.25 310.524 378.462 314.5 376.552 319.956C374.641 325.413 376.325 327.383 383.656 327.932" fill="white"/>
<path d="M377.805 308.195C379.25 310.524 378.462 314.5 376.552 319.956C374.641 325.413 376.325 327.383 383.656 327.932" stroke="#263238" stroke-linecap="round" stroke-linejoin="round"/>
<path d="M383.656 337.377C383.656 337.377 393.208 336.505 397.578 334.105" stroke="#263238" stroke-linecap="round" stroke-linejoin="round"/>
<path d="M444.168 283.241C444.168 276.148 437.171 261.593 424.897 259.958C417.84 252.579 407.787 249.868 395.584 252.674C367.382 259.146 358.797 286.99 357.567 291.599C357.448 292.029 357.388 292.267 357.388 292.267L364.934 290.357L361.686 296.697L365.639 299.312L364.731 300.315L369.316 304.733L367.883 296.661C368.767 291.455 374.761 284.172 374.761 284.172C372.573 287.007 371.21 290.391 370.821 293.951C373.209 287.754 387.537 282.011 387.537 282.011C382.892 285.784 380.373 293.163 380.373 293.163C384.79 287.718 395.142 284.196 401.769 282.321C404.002 287.706 407.548 293.33 412.611 296.446C417.387 299.384 417.219 305.449 417.219 305.449C422.358 309.021 426.144 314.22 427.965 320.207L433.744 328.111C433.744 328.111 444.168 315.323 444.168 283.241Z" fill="#263238"/>
<path d="M419.846 307.479C417.912 303.336 424.933 292.112 429.912 293.497C432.706 294.285 436.359 299.384 437.076 304.733C437.792 310.082 434.007 320.255 429.971 322.464C427.404 323.896 425.291 319.992 425.291 319.992" fill="white"/>
<path d="M419.846 307.479C417.912 303.336 424.933 292.112 429.912 293.497C432.706 294.285 436.359 299.384 437.076 304.733C437.792 310.082 434.007 320.255 429.971 322.464C427.404 323.896 425.291 319.992 425.291 319.992" stroke="#263238" stroke-linecap="round" stroke-linejoin="round"/>
<path d="M115.233 510.137L250.143 478.591L531.545 511.092L459.093 560.643L115.233 510.137Z" fill="white"/>
<path d="M115.233 510.137L250.143 478.591L531.545 511.092" fill="white"/>
<path d="M115.233 510.137L250.143 478.591L531.545 511.092" stroke="#263238" stroke-linecap="round" stroke-linejoin="round"/>
<path d="M231.982 516.465L286.596 492.322L355.645 495.892L324.935 522.148L231.982 516.465Z" fill="white" stroke="#263238" stroke-linecap="round" stroke-linejoin="round"/>
<path d="M373.101 359.394C355.585 366.558 351.812 382.665 322.046 446.317C322.046 446.317 308.828 449.028 301.748 465.087C294.667 481.146 306.524 493.827 320.171 493.397C320.171 493.397 325.652 498.173 336.887 497.683C348.123 497.194 397.781 421.207 397.781 421.207L373.101 359.394Z" fill="#263238"/>
<path d="M327.263 450.054C335.096 457.027 339.597 467.26 337.209 478.603" stroke="white" stroke-linecap="round" stroke-linejoin="round"/>
<path d="M334.821 453.41C334.821 453.41 344.445 455.511 345.938 467.833" stroke="white" stroke-linecap="round" stroke-linejoin="round"/>
<path d="M362.976 417.351C358.429 406.132 356.858 393.929 358.415 381.925" stroke="white" stroke-linecap="round" stroke-linejoin="round"/>
<path d="M361.615 401.112C360.886 406.127 366.068 432.825 366.033 460.896" stroke="white" stroke-linecap="round" stroke-linejoin="round"/>
<path d="M492.549 364.672C514.459 375.68 517.062 409.554 496.394 450.054C481.791 478.639 461.636 520.847 448.884 523.676C436.132 526.506 423.691 518.566 423.691 518.566C423.691 518.566 412.945 518.065 409.697 510.423C400.814 489.54 423.392 463.153 432.228 469.469C432.228 469.469 460.597 407.775 465.767 403.882" fill="#263238"/>
<path d="M407.667 497.731C404.766 483.319 427.452 466.317 432.228 469.469C432.228 469.469 449.075 470.412 451.595 482.066" stroke="white" stroke-linecap="round" stroke-linejoin="round"/>
<path d="M469.385 500.799C479.248 483.403 496.394 450.054 496.394 450.054" stroke="white" stroke-linecap="round" stroke-linejoin="round"/>
<path d="M432.228 469.469C432.228 469.469 444.037 462.4 452.86 469.087" stroke="white" stroke-linecap="round" stroke-linejoin="round"/>
<path d="M436.264 460.884C436.264 460.884 442.783 446.556 449.398 433.422C456.012 420.288 471.152 400.838 477.445 399.895" stroke="white" stroke-linecap="round" stroke-linejoin="round"/>
<path d="M311.825 486.639C310.407 486.569 309.021 486.19 307.765 485.528C287.467 474.937 271.683 457.433 262.179 444.872C258.483 440.072 255.082 435.052 251.994 429.84L256.865 408.969C256.865 408.969 261.45 420.909 279.874 432.646C298.297 444.383 320.183 448.251 327.263 460.108C333.532 470.436 322.487 487.152 311.825 486.639Z" fill="white"/>
<mask id="mask1_3_8" style="mask-type:luminance" maskUnits="userSpaceOnUse" x="251" y="408" width="79" height="79">
<path d="M311.825 486.639C310.407 486.569 309.021 486.19 307.765 485.528C287.467 474.937 271.683 457.433 262.179 444.872C258.483 440.072 255.082 435.052 251.994 429.84L256.865 408.969C256.865 408.969 261.45 420.909 279.874 432.646C298.297 444.383 320.183 448.251 327.263 460.108C333.532 470.436 322.487 487.152 311.825 486.639Z" fill="white"/>
</mask>
<g mask="url(#mask1_3_8)">
<path opacity="0.4" d="M311.825 486.639C311.599 485.129 311.198 483.65 310.631 482.233C306.368 471.558 280.578 450.341 280.578 450.341C274.441 450.15 267.695 447.595 262.202 444.872C258.499 440.072 255.09 435.052 251.994 429.84L256.865 408.969C256.865 408.969 261.45 420.909 279.874 432.646C298.297 444.383 320.183 448.251 327.263 460.108C333.532 470.436 322.487 487.152 311.825 486.639Z" fill="#1C7A86"/>
</g>
<path d="M311.825 486.639C310.407 486.569 309.021 486.19 307.765 485.528C287.467 474.937 271.683 457.433 262.179 444.872C258.483 440.072 255.082 435.052 251.994 429.84L256.865 408.969C256.865 408.969 261.45 420.909 279.874 432.646C298.297 444.383 320.183 448.251 327.263 460.108C333.532 470.436 322.487 487.152 311.825 486.639Z" stroke="#263238" stroke-linecap="round" stroke-linejoin="round"/>
<path d="M265.856 428.574C265.856 428.574 263.337 439.702 256.698 437.207C253.116 435.858 246.215 425.159 244.913 419.763L265.856 428.574Z" fill="white" stroke="#263238" stroke-linecap="round" stroke-linejoin="round"/>
<path d="M236.591 360.051L242.012 357.257C242.012 357.257 257.331 357.388 266.835 365.113C275.468 372.134 279.85 383.131 279.85 383.131C279.85 383.131 313.389 364.612 347.645 375.238L361.615 453.099L297.39 457.302L257.307 419.225L236.591 360.051Z" fill="white" stroke="#263238" stroke-linecap="round" stroke-linejoin="round"/>
<path d="M366.033 456.215C366.033 456.215 358.498 455.989 348.421 456.323C333.186 456.8 312.135 458.52 302.512 464.12L302.058 463.964L293.246 460.884L293.067 460.621C291.443 458.233 278.345 439.428 259.635 431.774L233.176 357.842C233.176 357.842 260.638 359.036 275.647 383.847L283.181 386.569C283.181 386.569 328.016 373.292 353.114 378.068L366.033 456.215Z" fill="#1C7A86"/>
<mask id="mask2_3_8" style="mask-type:luminance" maskUnits="userSpaceOnUse" x="233" y="357" width="134" height="108">
<path d="M366.033 456.215C366.033 456.215 358.498 455.989 348.421 456.323C333.186 456.8 312.135 458.52 302.512 464.12L302.058 463.964L293.246 460.884L293.067 460.621C291.443 458.233 278.345 439.428 259.635 431.774L233.176 357.842C233.176 357.842 260.638 359.036 275.647 383.847L283.181 386.569C283.181 386.569 328.016 373.292 353.114 378.068L366.033 456.215Z" fill="white"/>
</mask>
<g mask="url(#mask2_3_8)">
<path opacity="0.3" d="M293.067 460.633C291.443 458.245 278.345 439.44 259.635 431.786L233.176 357.854C233.176 357.854 260.638 359.048 275.647 383.859L293.067 460.633Z" fill="black" fill-opacity="0.7"/>
<path opacity="0.3" d="M348.421 456.323C333.186 456.8 312.135 458.52 302.512 464.12L302.058 463.964L284.459 389.244C284.459 389.244 298.858 386.008 303.288 387.644C303.276 387.668 332.553 409.267 348.421 456.323Z" fill="black" fill-opacity="0.7"/>
</g>
<path d="M366.033 456.215C366.033 456.215 358.498 455.989 348.421 456.323C333.186 456.8 312.135 458.52 302.512 464.12L302.058 463.964L293.246 460.884L293.067 460.621C291.443 458.233 278.345 439.428 259.635 431.774L233.176 357.842C233.176 357.842 260.638 359.036 275.647 383.847L283.181 386.569C283.181 386.569 328.016 373.292 353.114 378.068L366.033 456.215Z" stroke="#263238" stroke-linecap="round" stroke-linejoin="round"/>
<path d="M283.205 386.581L300.482 458.257" stroke="#263238" stroke-linecap="round" stroke-linejoin="round"/>
<path d="M293.246 460.896L276.459 389.268" stroke="#263238" stroke-linecap="round" stroke-linejoin="round"/>
<path d="M250.597 429.9C246.764 428.837 239.039 405.805 242.573 395.883C242.573 395.883 246.776 388.587 248.543 388.086C251.218 387.31 262.011 387.537 261.486 389.351C260.292 393.554 252.006 393.483 252.006 393.483L249.319 398.402L249.427 401.112C249.427 401.112 253.331 398.271 254.764 398.354C255.504 398.354 259.325 400.265 262.358 401.865C264.949 403.238 266.537 403.99 265.94 405.232C264.017 409.363 255.838 406.426 255.838 406.426L252.758 411.07C252.758 411.07 255.731 411.584 257.032 411.727C258.334 411.87 269.14 419.07 268.817 419.966C267.54 423.476 257.295 419.679 257.295 419.679L255.48 421.195C255.48 421.195 263.026 423.142 263.838 423.428C265.032 423.87 269.629 427.404 269.557 427.81C269.008 430.915 262.668 428.634 262.668 428.634L257.116 428.407C256.27 429.153 255.253 429.678 254.155 429.935" fill="white"/>
<path d="M250.597 429.9C246.764 428.837 239.039 405.805 242.573 395.883C242.573 395.883 246.776 388.587 248.543 388.086C251.218 387.31 262.011 387.537 261.486 389.351C260.292 393.554 252.006 393.483 252.006 393.483L249.319 398.402L249.427 401.112C249.427 401.112 253.331 398.271 254.764 398.354C255.504 398.354 259.325 400.265 262.358 401.865C264.949 403.238 266.537 403.99 265.94 405.232C264.017 409.363 255.838 406.426 255.838 406.426L252.758 411.07C252.758 411.07 255.731 411.584 257.032 411.727C258.334 411.87 269.14 419.07 268.817 419.966C267.54 423.476 257.295 419.679 257.295 419.679L255.48 421.195C255.48 421.195 263.026 423.142 263.838 423.428C265.032 423.87 269.629 427.404 269.557 427.81C269.008 430.915 262.668 428.634 262.668 428.634L257.116 428.407C256.27 429.153 255.253 429.678 254.155 429.935" stroke="#263238" stroke-linecap="round" stroke-linejoin="round"/>
<path d="M249.379 401.112C249.379 401.112 245.797 404.121 244.877 404.993C243.958 405.864 244.185 408.634 244.185 408.634" stroke="#263238" stroke-linecap="round" stroke-linejoin="round"/>
<path d="M246.788 414.748C246.788 417.781 248.818 419.619 249.749 420.598C250.68 421.578 248.256 424.24 250.943 426.151" stroke="#263238" stroke-linecap="round" stroke-linejoin="round"/>
<path d="M423.643 510.877C416.061 512.942 407.823 499.617 397.769 485.074C391.131 475.522 383.704 465.338 375.167 458.806C374.486 458.293 373.794 457.792 373.101 457.314L378.092 432.24C388.456 437.673 394.88 446.377 405.638 455.32C422.951 469.732 438.294 478.579 442.544 484.955C446.795 491.331 436.634 507.331 423.643 510.877Z" fill="white"/>
<mask id="mask3_3_8" style="mask-type:luminance" maskUnits="userSpaceOnUse" x="373" y="432" width="71" height="80">
<path d="M423.643 510.877C416.061 512.942 407.823 499.617 397.769 485.074C391.131 475.522 383.704 465.338 375.167 458.806C374.486 458.293 373.794 457.792 373.101 457.314L378.092 432.24C388.456 437.673 394.88 446.377 405.638 455.32C422.951 469.732 438.294 478.579 442.544 484.955C446.795 491.331 436.634 507.331 423.643 510.877Z" fill="white"/>
</mask>
<g mask="url(#mask3_3_8)">
<path opacity="0.4" d="M397.769 485.063C391.131 475.511 383.704 465.326 375.167 458.795C376.292 458.852 377.417 458.681 378.474 458.293C378.474 458.293 391.966 469.242 397.769 485.063Z" fill="#1C7A86"/>
</g>
<path d="M423.643 510.877C416.061 512.942 407.823 499.617 397.769 485.074C391.131 475.522 383.704 465.338 375.167 458.806C374.486 458.293 373.794 457.792 373.101 457.314L378.092 432.24C388.456 437.673 394.88 446.377 405.638 455.32C422.951 469.732 438.294 478.579 442.544 484.955C446.795 491.331 436.634 507.331 423.643 510.877Z" stroke="#263238" stroke-linecap="round" stroke-linejoin="round"/>
<path d="M380.886 456.323C380.367 457.25 379.513 457.942 378.498 458.257C378.228 458.363 377.953 458.455 377.674 458.532H377.447C369.436 460.621 351.406 456.275 351.406 456.275C351.406 456.275 339.597 450.663 338.881 449.338C338.382 448.288 337.94 447.212 337.556 446.114L337.233 445.171C337.233 445.171 332.983 442.783 332.457 440.92C331.932 439.058 331.037 438.532 333.651 438.198C336.266 437.864 350.367 438.198 350.367 438.198L335.024 431.941C335.024 431.941 324.864 426.819 323.92 425.016C322.977 423.213 321.795 422.019 326.989 422.736C332.183 423.452 343.526 426.748 343.526 426.748L352.469 428.646L343.585 424.861C343.585 424.861 326.105 422.748 329.413 417.315H339.335C344.956 417.563 350.547 418.274 356.051 419.44C358.94 420.324 378.044 432.192 378.044 432.192" fill="white"/>
<mask id="mask4_3_8" style="mask-type:luminance" maskUnits="userSpaceOnUse" x="323" y="417" width="58" height="43">
<path d="M380.886 456.323C380.367 457.25 379.513 457.942 378.498 458.257C378.228 458.363 377.953 458.455 377.674 458.532H377.447C369.436 460.621 351.406 456.275 351.406 456.275C351.406 456.275 339.597 450.663 338.881 449.338C338.382 448.288 337.94 447.212 337.556 446.114L337.233 445.171C337.233 445.171 332.983 442.783 332.457 440.92C331.932 439.058 331.037 438.532 333.651 438.198C336.266 437.864 350.367 438.198 350.367 438.198L335.024 431.941C335.024 431.941 324.864 426.819 323.92 425.016C322.977 423.213 321.795 422.019 326.989 422.736C332.183 423.452 343.526 426.748 343.526 426.748L352.469 428.646L343.585 424.861C343.585 424.861 326.105 422.748 329.413 417.315H339.335C344.956 417.563 350.547 418.274 356.051 419.44C358.94 420.324 378.044 432.192 378.044 432.192" fill="white"/>
</mask>
<g mask="url(#mask4_3_8)">
<path opacity="0.4" d="M377.423 458.58C369.412 460.669 351.382 456.323 351.382 456.323C351.382 456.323 339.574 450.711 338.857 449.386C338.358 448.336 337.916 447.26 337.532 446.162L352.027 447.75C351.52 448.663 351.254 449.69 351.254 450.735C351.254 451.78 351.52 452.807 352.027 453.72C353.639 456.621 372.003 459.559 377.423 458.58Z" fill="#1C7A86"/>
</g>
<path d="M380.886 456.323C380.367 457.25 379.513 457.942 378.498 458.257C378.228 458.363 377.953 458.455 377.674 458.532H377.447C369.436 460.621 351.406 456.275 351.406 456.275C351.406 456.275 339.597 450.663 338.881 449.338C338.382 448.288 337.94 447.212 337.556 446.114L337.233 445.171C337.233 445.171 332.983 442.783 332.457 440.92C331.932 439.058 331.037 438.532 333.651 438.198C336.266 437.864 350.367 438.198 350.367 438.198L335.024 431.941C335.024 431.941 324.864 426.819 323.92 425.016C322.977 423.213 321.795 422.019 326.989 422.736C332.183 423.452 343.526 426.748 343.526 426.748L352.469 428.646L343.585 424.861C343.585 424.861 326.105 422.748 329.413 417.315H339.335C344.956 417.563 350.547 418.274 356.051 419.44C358.94 420.324 378.044 432.192 378.044 432.192" stroke="#263238" stroke-linecap="round" stroke-linejoin="round"/>
<path d="M337.209 445.219L354.654 447.786" stroke="#263238" stroke-linecap="round" stroke-linejoin="round"/>
<path d="M163.315 498.638L207.04 511.772L287.038 493.516C287.038 493.516 238.179 479.642 237.725 479.988C237.272 480.334 163.315 498.638 163.315 498.638Z" fill="#1C7A86"/>
<mask id="mask5_3_8" style="mask-type:luminance" maskUnits="userSpaceOnUse" x="163" y="479" width="125" height="33">
<path d="M163.315 498.638L207.04 511.772L287.038 493.516C287.038 493.516 238.179 479.642 237.725 479.988C237.272 480.334 163.315 498.638 163.315 498.638Z" fill="white"/>
</mask>
<g mask="url(#mask5_3_8)">
<path opacity="0.3" d="M163.315 498.638L207.04 511.772L287.038 493.516C287.038 493.516 238.179 479.642 237.725 479.988C237.272 480.334 163.315 498.638 163.315 498.638Z" fill="black" fill-opacity="0.7"/>
</g>
<path d="M163.315 498.638L207.04 511.772L287.038 493.516C287.038 493.516 238.179 479.642 237.725 479.988C237.272 480.334 163.315 498.638 163.315 498.638Z" stroke="#263238" stroke-linecap="round" stroke-linejoin="round"/>
<path d="M163.948 483.236C160.88 483.451 160.115 494.507 163.315 498.638L233.952 483.976L239.612 470.579L163.948 483.236Z" fill="#1C7A86"/>
<mask id="mask6_3_8" style="mask-type:luminance" maskUnits="userSpaceOnUse" x="161" y="470" width="79" height="29">
<path d="M163.948 483.236C160.88 483.451 160.115 494.507 163.315 498.638L233.952 483.976L239.612 470.579L163.948 483.236Z" fill="white"/>
</mask>
<g mask="url(#mask6_3_8)">
<path opacity="0.3" d="M163.948 483.236C160.88 483.451 160.115 494.507 163.315 498.638L233.952 483.976L239.612 470.579L163.948 483.236Z" fill="black" fill-opacity="0.7"/>
</g>
<path d="M163.948 483.236C160.88 483.451 160.115 494.507 163.315 498.638L233.952 483.976L239.612 470.579L163.948 483.236Z" stroke="#263238" stroke-linecap="round" stroke-linejoin="round"/>
<path d="M283.611 483.08C283.611 483.08 282.56 488.895 283.241 492.477L206.956 509.742L166.742 497.898C166.742 497.898 162.563 490.507 166.205 484.764L239.684 472.287L283.611 483.08Z" fill="white" stroke="#263238" stroke-linecap="round" stroke-linejoin="round"/>
<path d="M163.948 483.236L239.612 470.579L286.596 482.483L207.577 498.232L163.948 483.236Z" fill="#1C7A86" stroke="#263238" stroke-linecap="round" stroke-linejoin="round"/>
<path d="M166.635 490.304L206.646 502.22L272.136 489.038" stroke="#263238" stroke-linecap="round" stroke-linejoin="round"/>
<path d="M283.026 490.256L212.604 505.277" stroke="#263238" stroke-linecap="round" stroke-linejoin="round"/>
<path d="M167.578 494.997C168.187 495.056 197.738 504.155 197.738 504.155" stroke="#263238" stroke-linecap="round" stroke-linejoin="round"/>
<path d="M277.271 487.498L282.871 486.591" stroke="#263238" stroke-linecap="round" stroke-linejoin="round"/>
<path d="M205.344 506.363L202.371 505.695" stroke="#263238" stroke-linecap="round" stroke-linejoin="round"/>
<path d="M166.205 484.764C167.771 486.568 168.677 488.85 168.774 491.237C168.872 493.623 168.155 495.972 166.742 497.898C165.434 495.978 164.69 493.729 164.595 491.408C164.5 489.086 165.058 486.785 166.205 484.764Z" fill="#263238"/>
<mask id="mask7_3_8" style="mask-type:luminance" maskUnits="userSpaceOnUse" x="164" y="484" width="5" height="14">
<path d="M166.205 484.764C167.771 486.568 168.677 488.85 168.774 491.237C168.872 493.623 168.155 495.972 166.742 497.898C165.434 495.978 164.69 493.729 164.595 491.408C164.5 489.086 165.058 486.785 166.205 484.764Z" fill="white"/>
</mask>
<g mask="url(#mask7_3_8)">
<path opacity="0.3" d="M166.205 484.764C167.771 486.568 168.677 488.85 168.774 491.237C168.872 493.623 168.155 495.972 166.742 497.898C165.434 495.978 164.69 493.729 164.595 491.408C164.5 489.086 165.058 486.785 166.205 484.764Z" fill="white" fill-opacity="0.7"/>
</g>
<path d="M166.205 484.764C167.771 486.568 168.677 488.85 168.774 491.237C168.872 493.623 168.155 495.972 166.742 497.898C165.434 495.978 164.69 493.729 164.595 491.408C164.5 489.086 165.058 486.785 166.205 484.764Z" stroke="#263238" stroke-linecap="round" stroke-linejoin="round"/>
<path d="M329.628 502.22L405.984 505.348L398.545 531.628L304.613 528.046L329.628 502.22Z" fill="white"/>
<mask id="mask8_3_8" style="mask-type:luminance" maskUnits="userSpaceOnUse" x="304" y="502" width="102" height="30">
<path d="M329.628 502.22L405.984 505.348L398.545 531.628L304.613 528.046L329.628 502.22Z" fill="white"/>
</mask>
<g mask="url(#mask8_3_8)">
<path opacity="0.4" d="M329.628 502.22L405.984 505.348L398.545 531.628L304.613 528.046L329.628 502.22Z" fill="#1C7A86"/>
</g>
<path d="M329.628 502.22L405.984 505.348L398.545 531.628L304.613 528.046L329.628 502.22Z" stroke="#263238" stroke-linecap="round" stroke-linejoin="round"/>
</svg>
